<svg preserveAspectRatio="none" width="100%" height="100%" overflow="visible" style="display: block;" viewBox="0 0 446.979 164.523" fill="none" xmlns="http://www.w3.org/2000/svg">
<g id="Group 6">
<path id="Vector 6" d="M13.4829 11.2617C13.5974 11.2617 13.7118 11.2617 24.4384 11.1858C35.1649 11.1099 56.5 10.9582 95.4522 9.08408C134.404 7.20997 190.327 3.6181 220.86 2.0108C251.392 0.403497 254.84 0.889613 259.445 2.24006" stroke="var(--stroke-0, #C4C4C4)" stroke-width="2" stroke-linecap="round"/>
<path id="Vector 7" d="M289.716 45.0662C293.444 44.9004 302.991 44.5596 322.853 39.289C329.156 37.6165 341.387 34.4541 359.63 28.5393C367.526 25.6609 372.656 23.0322 377.405 20.956C382.155 18.8798 386.37 17.4356 390.711 15.9476" stroke="var(--stroke-0, #C4C4C4)" stroke-width="2" stroke-linecap="round"/>
<path id="Vector 8" d="M298.309 15.41C298.381 15.41 306.48 15.4511 321.76 16.9197C347.422 19.3864 356.308 31.4148 362.312 34.5165C377.227 44.6673 380.317 47.9324 382.951 51.2218C384.066 52.6194 384.731 53.4656 385.957 55.035" stroke="var(--stroke-0, #C4C4C4)" stroke-width="2" stroke-linecap="round"/>
<path id="Vector 9" d="M409.569 137.07C409.605 137.143 409.641 137.216 409.873 137.656C410.106 138.096 410.534 138.9 411.877 142.992C413.22 147.085 415.464 154.442 418.251 163.523" stroke="var(--stroke-0, #C4C4C4)" stroke-width="2" stroke-linecap="round"/>
<path id="Vector 10" d="M419.666 126.236C421.066 126.236 426.398 127.45 430.721 130.141C431.942 131.19 433.568 132.766 434.689 133.921C435.811 135.075 436.379 135.762 436.965 136.47" stroke="var(--stroke-0, #C4C4C4)" stroke-width="2" stroke-linecap="round"/>
<path id="Vector 11" d="M424.623 102.811C424.772 102.811 426.62 102.811 430.681 102.574C432.971 102.338 435.727 101.864 438.37 101.621C441.013 101.377 443.459 101.377 445.979 101.377" stroke="var(--stroke-0, #C4C4C4)" stroke-width="2" stroke-linecap="round"/>
<path id="Vector 12" d="M1.00001 90.3047C2.03993 89.3521 5.52076 86.596 11.5569 84.4655C14.8328 83.3092 16.8932 90.7491 21.5088 92.1707C28.1147 94.2053 31.6941 88.6921 35.3837 86.497C37.1856 85.425 40.4971 85.4522 44.0138 85.7105C48.1005 86.0107 50.738 91.3135 54.8579 92.7914C55.787 93.1246 56.7444 92.9391 57.4944 92.4961C60.955 90.452 64.7062 86.9809 69.0318 85.0179C72.5724 83.4111 76.6338 86.4605 79.8533 88.4644C84.0147 91.0546 89.4182 90.8626 91.1828 90.6283C94.8165 90.1458 97.5894 86.5105 100.933 84.7024C101.745 84.2629 102.684 84.1505 103.765 84.6044C108.874 86.7512 111.366 90.3873 115.331 90.5895C118.895 90.7713 121.193 85.7968 126.693 84.5487C128.432 84.154 130.612 84.3851 132.087 84.8153C136.503 86.1032 137.884 91.3274 141.645 93.0989C147.004 95.6241 150.341 89.7887 153.691 87.35C156.056 85.629 159.249 85.4053 161.763 85.6084C166.247 85.9705 169.338 90.1391 172.857 91.6173C173.703 91.9729 174.621 92.0027 175.264 91.6193C176.666 90.7838 177.774 88.6794 179.903 87.348C181.737 86.2004 185.424 85.8525 189.801 86.0448C194.2 86.238 197.473 89.8796 201.406 89.1691C206.137 88.3146 208.312 84.0863 212.207 83.3673C217.57 82.3769 221.29 86.0465 224.137 88.6715C225.533 89.9579 227.7 90.3821 229.993 90.2183C235.269 89.8414 241.002 83.9528 247.35 83.4404C251.88 83.0747 255.419 86.6657 261.647 86.9385C265.973 87.128 269.332 83.3132 273.218 82.4831C277.555 81.5567 280.803 84.7654 282.678 85.7511C288.895 89.0207 297.894 79.9759 302.859 79.871C308.977 79.7417 315.548 82.2106 320.735 81.5165C324.706 80.9851 332.884 84.4858 347.354 87.1285C354.717 88.0128 357.689 86.8206 359.335 85.7842C360.136 85.243 360.865 84.6708 361.616 84.0812" stroke="var(--stroke-0, #C4C4C4)" stroke-width="2" stroke-linecap="round"/>
</g>
</svg>
