<svg preserveAspectRatio="none" width="100%" height="100%" overflow="visible" style="display: block;" viewBox="0 0 395.402 114.248" fill="none" xmlns="http://www.w3.org/2000/svg">
<g id="Group 7">
<path id="Vector 13" d="M387.354 7.50513V19.725" stroke="var(--stroke-0, #C4C4C4)" stroke-width="2" stroke-linecap="round"/>
<path id="Vector 14" d="M388.788 1C389.444 1.63974 392.869 9.52084 394.4 15.4276C394.312 19.9345 393.688 22.1943 393.028 23.8887C392.695 24.7103 392.366 25.4545 391.752 27.0673" stroke="var(--stroke-0, #C4C4C4)" stroke-width="2" stroke-linecap="round"/>
<path id="Vector 15" d="M330.16 53.6054C330.666 52.9696 332.33 51.8238 333.457 51.8269C334.587 51.83 334.835 53.913 335.147 55.4001C335.477 56.9741 334.937 58.5061 334.416 59.7903C333.886 61.0948 332.739 62.023 331.873 62.2636C331.657 62.3236 331.975 61.5769 332.447 61.1609C332.919 60.7449 333.555 60.5083 334.421 60.3864C335.287 60.2644 336.363 60.2644 337.471 60.2644" stroke="var(--stroke-0, #C4C4C4)" stroke-width="2" stroke-linecap="round"/>
<path id="Vector 16" d="M335.026 44.6799C336.298 44.6799 339.918 45.1995 342.991 47.7371C345.417 50.6742 347.252 53.7766 347.891 56.9198C347.946 57.901 347.946 59.1795 347.473 61.637" stroke="var(--stroke-0, #C4C4C4)" stroke-width="2" stroke-linecap="round"/>
<path id="Vector 17" d="M1 98.728C1 98.6688 3.69392 98.5255 7.87822 98.6907C9.39313 98.7505 9.57384 99.6407 9.62641 100.378C9.73457 101.896 8.99812 103.203 8.00143 104.112C7.50464 104.565 6.88548 104.834 6.67371 104.625C6.46193 104.415 6.64036 103.675 6.97957 103.06C7.31878 102.445 7.81337 101.976 8.36768 101.926C9.56367 101.819 10.4776 103.201 11.1446 104.536C12.0003 106.248 12.0937 108.43 11.8367 110.251C11.5797 111.033 11.0657 111.523 10.3557 111.79C9.64581 112.057 8.75554 112.085 6.93904 111.365" stroke="var(--stroke-0, #C4C4C4)" stroke-width="2" stroke-linecap="round"/>
<path id="Vector 18" d="M10.4294 90.9485C11.0859 91.1223 14.8764 95.1065 19.1567 103.779C20.1545 107 20.4221 109.292 20.2377 110.987C20.0533 111.738 19.6844 112.268 19.2203 113.248" stroke="var(--stroke-0, #C4C4C4)" stroke-width="2" stroke-linecap="round"/>
</g>
</svg>
